<svg width="30" height="30" viewBox="0 0 30 30" fill="none" xmlns="http://www.w3.org/2000/svg">
<path fillRule="evenodd" clipRule="evenodd" d="M15 30C23.2843 30 30 23.2843 30 15C30 6.71573 23.2843 0 15 0C6.71573 0 0 6.71573 0 15C0 23.2843 6.71573 30 15 30ZM9.8125 14.3585C9.36377 14.3585 9 14.7223 9 15.171C9 15.6197 9.36377 15.9835 9.8125 15.9835H16.4729C17.3616 15.9835 17.8088 17.0562 17.1832 17.6874L14.9275 19.9636C14.6151 20.2788 14.6162 20.7872 14.93 21.101C15.2448 21.4158 15.7552 21.4158 16.07 21.101L21.2929 15.8781C21.6834 15.4876 21.6834 14.8544 21.2929 14.4639L16.0688 9.2398C15.7531 8.92405 15.2425 8.91955 14.9213 9.22968C14.5919 9.54764 14.5872 10.0739 14.9109 10.3977L17.1647 12.6514C17.7946 13.2814 17.3485 14.3585 16.4576 14.3585H9.8125Z" fill="#8E00FF"/>
</svg>
