<svg width="16" height="18" viewBox="0 0 16 18" fill="none" xmlns="http://www.w3.org/2000/svg">
<path fillRule="evenodd" clipRule="evenodd" d="M11.942 0.75C11.942 0.335786 11.6306 0 11.2464 0C10.8622 0 10.5507 0.335786 10.5507 0.75V1.75H5.44926V0.75C5.44926 0.335786 5.13781 0 4.75361 0C4.36941 0 4.05796 0.335786 4.05796 0.75V1.75H2.31883C1.03816 1.75 -1.52588e-05 2.86929 -1.52588e-05 4.25L0 15C0 16.3807 1.03818 17.5 2.31884 17.5H13.6812C14.9618 17.5 16 16.3807 16 15L16 4.25C16 2.86929 14.9618 1.75 13.6811 1.75H11.942V0.75ZM14.6087 7V4.25C14.6087 3.69772 14.1934 3.25 13.6811 3.25H11.942V4.25C11.942 4.66421 11.6306 5 11.2464 5C10.8622 5 10.5507 4.66421 10.5507 4.25V3.25H5.44926V4.25C5.44926 4.66421 5.13781 5 4.75361 5C4.36941 5 4.05796 4.66421 4.05796 4.25V3.25H2.31883C1.80656 3.25 1.39129 3.69772 1.39129 4.25V7H14.6087ZM1.39129 8.5H14.6087L14.6087 15C14.6087 15.5523 14.1934 16 13.6812 16H2.31884C1.80658 16 1.3913 15.5523 1.3913 15L1.39129 8.5Z" fill="#961CFF"/>
</svg>
