<svg width="23" height="17" viewBox="0 0 23 17" fill="none" xmlns="http://www.w3.org/2000/svg">
<path d="M19.75 1.375C20.1147 1.375 20.4644 1.51987 20.7223 1.77773C20.9801 2.03559 21.125 2.38533 21.125 2.75V13.75C21.125 14.1147 20.9801 14.4644 20.7223 14.7223C20.4644 14.9801 20.1147 15.125 19.75 15.125H3.25C2.88533 15.125 2.53559 14.9801 2.27773 14.7223C2.01987 14.4644 1.875 14.1147 1.875 13.75V2.75C1.875 2.38533 2.01987 2.03559 2.27773 1.77773C2.53559 1.51987 2.88533 1.375 3.25 1.375H19.75ZM3.25 0C2.52065 0 1.82118 0.289731 1.30546 0.805456C0.789731 1.32118 0.5 2.02065 0.5 2.75V13.75C0.5 14.4793 0.789731 15.1788 1.30546 15.6945C1.82118 16.2103 2.52065 16.5 3.25 16.5H19.75C20.4793 16.5 21.1788 16.2103 21.6945 15.6945C22.2103 15.1788 22.5 14.4793 22.5 13.75V2.75C22.5 2.02065 22.2103 1.32118 21.6945 0.805456C21.1788 0.289731 20.4793 0 19.75 0H3.25Z" fill="#961CFF"/>
<path d="M3.25 4.8125C3.25 4.63016 3.32243 4.4553 3.45136 4.32636C3.5803 4.19743 3.75516 4.125 3.9375 4.125H6.6875C6.86984 4.125 7.0447 4.19743 7.17364 4.32636C7.30257 4.4553 7.375 4.63016 7.375 4.8125V6.1875C7.375 6.36984 7.30257 6.5447 7.17364 6.67364C7.0447 6.80257 6.86984 6.875 6.6875 6.875H3.9375C3.75516 6.875 3.5803 6.80257 3.45136 6.67364C3.32243 6.5447 3.25 6.36984 3.25 6.1875V4.8125ZM3.25 8.9375C3.25 8.75516 3.32243 8.58029 3.45136 8.45136C3.5803 8.32243 3.75516 8.25 3.9375 8.25H10.8125C10.9948 8.25 11.1697 8.32243 11.2986 8.45136C11.4276 8.58029 11.5 8.75516 11.5 8.9375C11.5 9.11984 11.4276 9.29471 11.2986 9.42364C11.1697 9.55257 10.9948 9.625 10.8125 9.625H3.9375C3.75516 9.625 3.5803 9.55257 3.45136 9.42364C3.32243 9.29471 3.25 9.11984 3.25 8.9375ZM3.25 11.6875C3.25 11.5052 3.32243 11.3303 3.45136 11.2014C3.5803 11.0724 3.75516 11 3.9375 11H5.3125C5.49484 11 5.6697 11.0724 5.79864 11.2014C5.92757 11.3303 6 11.5052 6 11.6875C6 11.8698 5.92757 12.0447 5.79864 12.1736C5.6697 12.3026 5.49484 12.375 5.3125 12.375H3.9375C3.75516 12.375 3.5803 12.3026 3.45136 12.1736C3.32243 12.0447 3.25 11.8698 3.25 11.6875ZM7.375 11.6875C7.375 11.5052 7.44743 11.3303 7.57636 11.2014C7.7053 11.0724 7.88016 11 8.0625 11H9.4375C9.61984 11 9.7947 11.0724 9.92364 11.2014C10.0526 11.3303 10.125 11.5052 10.125 11.6875C10.125 11.8698 10.0526 12.0447 9.92364 12.1736C9.7947 12.3026 9.61984 12.375 9.4375 12.375H8.0625C7.88016 12.375 7.7053 12.3026 7.57636 12.1736C7.44743 12.0447 7.375 11.8698 7.375 11.6875ZM11.5 11.6875C11.5 11.5052 11.5724 11.3303 11.7014 11.2014C11.8303 11.0724 12.0052 11 12.1875 11H13.5625C13.7448 11 13.9197 11.0724 14.0486 11.2014C14.1776 11.3303 14.25 11.5052 14.25 11.6875C14.25 11.8698 14.1776 12.0447 14.0486 12.1736C13.9197 12.3026 13.7448 12.375 13.5625 12.375H12.1875C12.0052 12.375 11.8303 12.3026 11.7014 12.1736C11.5724 12.0447 11.5 11.8698 11.5 11.6875ZM15.625 11.6875C15.625 11.5052 15.6974 11.3303 15.8264 11.2014C15.9553 11.0724 16.1302 11 16.3125 11H17.6875C17.8698 11 18.0447 11.0724 18.1736 11.2014C18.3026 11.3303 18.375 11.5052 18.375 11.6875C18.375 11.8698 18.3026 12.0447 18.1736 12.1736C18.0447 12.3026 17.8698 12.375 17.6875 12.375H16.3125C16.1302 12.375 15.9553 12.3026 15.8264 12.1736C15.6974 12.0447 15.625 11.8698 15.625 11.6875Z" fill="#961CFF"/>
</svg>