<svg width="23" height="17" viewBox="0 0 23 17" fill="none" xmlns="http://www.w3.org/2000/svg">
<path d="M19.75 1.625C20.1147 1.625 20.4644 1.76987 20.7223 2.02773C20.9801 2.28559 21.125 2.63533 21.125 3V14C21.125 14.3647 20.9801 14.7144 20.7223 14.9723C20.4644 15.2301 20.1147 15.375 19.75 15.375H3.25C2.88533 15.375 2.53559 15.2301 2.27773 14.9723C2.01987 14.7144 1.875 14.3647 1.875 14V3C1.875 2.63533 2.01987 2.28559 2.27773 2.02773C2.53559 1.76987 2.88533 1.625 3.25 1.625H19.75ZM3.25 0.25C2.52065 0.25 1.82118 0.539731 1.30546 1.05546C0.789731 1.57118 0.5 2.27065 0.5 3V14C0.5 14.7293 0.789731 15.4288 1.30546 15.9445C1.82118 16.4603 2.52065 16.75 3.25 16.75H19.75C20.4793 16.75 21.1788 16.4603 21.6945 15.9445C22.2103 15.4288 22.5 14.7293 22.5 14V3C22.5 2.27065 22.2103 1.57118 21.6945 1.05546C21.1788 0.539731 20.4793 0.25 19.75 0.25H3.25Z" fill="#961CFF"/>
<path d="M8.5 12C8.5 11.1716 9.17157 10.5 10 10.5C10.8284 10.5 11.5 11.1716 11.5 12C11.5 12.8284 10.8284 13.5 10 13.5C9.17157 13.5 8.5 12.8284 8.5 12Z" fill="#961CFF"/>
<path d="M12.5 12C12.5 11.1716 13.1716 10.5 14 10.5C14.8284 10.5 15.5 11.1716 15.5 12C15.5 12.8284 14.8284 13.5 14 13.5C13.1716 13.5 12.5 12.8284 12.5 12Z" fill="#961CFF"/>
<path d="M16.5 12C16.5 11.1716 17.1716 10.5 18 10.5C18.8284 10.5 19.5 11.1716 19.5 12C19.5 12.8284 18.8284 13.5 18 13.5C17.1716 13.5 16.5 12.8284 16.5 12Z" fill="#961CFF"/>
</svg>