<svg width="18" height="15" viewBox="0 0 18 15" fill="none" xmlns="http://www.w3.org/2000/svg">
<path d="M2.375 0C1.74511 0 1.14102 0.243131 0.695621 0.675907C0.250223 1.10868 0 1.69565 0 2.30769V12.6923C0 13.3043 0.250223 13.8913 0.695621 14.3241C1.14102 14.7569 1.74511 15 2.375 15H15.625C16.2549 15 16.859 14.7569 17.3044 14.3241C17.7498 13.8913 18 13.3043 18 12.6923V2.30769C18 1.69565 17.7498 1.10868 17.3044 0.675907C16.859 0.243131 16.2549 0 15.625 0H2.375ZM1.1875 2.30769C1.1875 2.00167 1.31261 1.70819 1.53531 1.4918C1.75801 1.27541 2.06006 1.15385 2.375 1.15385H4.75V3.46154H1.1875V2.30769ZM5.9375 13.8462V1.15385H15.625C15.9399 1.15385 16.242 1.27541 16.4647 1.4918C16.6874 1.70819 16.8125 2.00167 16.8125 2.30769V12.6923C16.8125 13.0212 16.67 13.3188 16.4444 13.5288C15.8031 12.1085 14.6561 10.3846 11.305 10.3846C7.69853 10.3846 6.71531 12.3808 6.17738 13.8462H5.9375ZM1.1875 11.5385H4.75V13.8462H2.375C2.06006 13.8462 1.75801 13.7246 1.53531 13.5082C1.31261 13.2918 1.1875 12.9983 1.1875 12.6923V11.5385ZM4.75 10.3846H1.1875V8.07692H4.75V10.3846ZM4.75 6.92308H1.1875V4.61538H4.75V6.92308Z" fill="#961CFF"/>
<path fillRule="evenodd" clipRule="evenodd" d="M9 6.5C9 5.11929 10.1193 4 11.5 4C12.8807 4 14 5.11929 14 6.5C14 7.88071 12.8807 9 11.5 9C10.1193 9 9 7.88071 9 6.5Z" fill="#961CFF"/>
</svg>
