<svg width="20" height="18" viewBox="0 0 20 18" fill="none" xmlns="http://www.w3.org/2000/svg">
<path fill-rule="evenodd" clip-rule="evenodd" d="M5.31388 1.95834C3.1284 1.95834 1.58333 3.71873 1.58333 6.06129V12.0452C1.58333 14.3877 3.1284 16.1481 5.31388 16.1481H13.9517C14.9897 16.1354 15.9785 15.6961 16.6879 14.9306C17.3983 14.164 17.7663 13.1372 17.7048 12.0892C17.7039 12.0745 17.7035 12.0598 17.7035 12.0452V6.06129C17.7035 6.04661 17.7039 6.03194 17.7048 6.0173C17.7663 4.96928 17.3983 3.94244 16.6879 3.17582C15.9785 2.41036 14.9898 1.97109 13.9517 1.95834H5.31388ZM0.0833282 6.06129C0.0833282 3.05294 2.14619 0.458344 5.31388 0.458344H13.9645C15.4173 0.474637 16.7989 1.08885 17.7881 2.15624C18.7719 3.21788 19.2823 4.63572 19.2035 6.08247V12.024C19.2823 13.4707 18.7719 14.8886 17.7881 15.9502C16.7989 17.0176 15.4173 17.6318 13.9645 17.6481L13.9561 17.6482L5.31388 17.6481C2.14619 17.6481 0.0833282 15.0535 0.0833282 12.0452V6.06129ZM3.8719 5.83814C4.13032 5.51442 4.60223 5.46149 4.92595 5.71991L8.86665 8.86571C9.33359 9.23012 9.9854 9.2304 10.4526 8.86655L14.3584 5.72186C14.681 5.4621 15.1532 5.51306 15.4129 5.8357C15.6727 6.15834 15.6217 6.63047 15.2991 6.89023L11.3815 10.0444C10.3699 10.8376 8.95052 10.8375 7.93885 10.0444L7.93367 10.0403L3.99013 6.89219C3.66642 6.63377 3.61348 6.16186 3.8719 5.83814Z" fill="#961CFF"/>
</svg>
