<svg width="70" height="62" viewBox="0 0 70 62" fill="none" xmlns="http://www.w3.org/2000/svg">
<path fillRule="evenodd" clipRule="evenodd" d="M57.5 39C55.6569 39 53.8462 39.4852 52.25 40.4067C50.6538 41.3283 49.3283 42.6538 48.4067 44.25C47.4852 45.8462 47 47.6569 47 49.5C47 51.3431 47.4852 53.1538 48.4067 54.75C49.3283 56.3462 50.6538 57.6717 52.25 58.5933C53.8462 59.5148 55.6569 60 57.5 60C59.3431 60 61.1538 59.5148 62.75 58.5933C64.3462 57.6717 65.6717 56.3462 66.5933 54.75C66.8694 54.2717 67.481 54.1078 67.9593 54.384C68.4376 54.6601 68.6015 55.2717 68.3253 55.75C67.2282 57.6502 65.6502 59.2282 63.75 60.3253C61.8498 61.4224 59.6942 62 57.5 62C55.3058 62 53.1502 61.4224 51.25 60.3253C49.3498 59.2282 47.7718 57.6502 46.6747 55.75C45.5776 53.8498 45 51.6942 45 49.5C45 47.3058 45.5776 45.1502 46.6747 43.25C47.7718 41.3498 49.3498 39.7718 51.25 38.6747C53.1502 37.5776 55.3058 37 57.5 37C58.0523 37 58.5 37.4477 58.5 38C58.5 38.5523 58.0523 39 57.5 39Z" fill="#F1F1F1"/>
<path fillRule="evenodd" clipRule="evenodd" d="M59.4437 38.1214C59.5835 37.5871 60.1299 37.2673 60.6642 37.4071C60.9135 37.4723 61.1606 37.5452 61.4054 37.6257C61.93 37.7983 62.2154 38.3635 62.0429 38.8881C61.8703 39.4127 61.3051 39.6982 60.7805 39.5256C60.5749 39.458 60.3673 39.3968 60.158 39.342C59.6237 39.2022 59.3039 38.6557 59.4437 38.1214Z" fill="#F1F1F1"/>
<path fillRule="evenodd" clipRule="evenodd" d="M62.8892 39.2919C63.1884 38.8276 63.8073 38.6938 64.2715 38.993C64.4971 39.1384 64.718 39.2911 64.9338 39.4507C65.3778 39.7792 65.4715 40.4054 65.1431 40.8494C64.8146 41.2934 64.1884 41.3871 63.7444 41.0586C63.5631 40.9245 63.3776 40.7963 63.1881 40.6741C62.7238 40.375 62.59 39.7561 62.8892 39.2919Z" fill="#F1F1F1"/>
<path fillRule="evenodd" clipRule="evenodd" d="M65.7537 41.4299C66.1805 41.0794 66.8107 41.1414 67.1611 41.5682C67.3234 41.7659 67.4795 41.9685 67.6294 42.1757C67.953 42.6232 67.8525 43.2484 67.405 43.572C66.9574 43.8956 66.3323 43.7951 66.0087 43.3476C65.8828 43.1735 65.7516 43.0033 65.6153 42.8373C65.2649 42.4105 65.3268 41.7803 65.7537 41.4299Z" fill="#F1F1F1"/>
<path fillRule="evenodd" clipRule="evenodd" d="M67.7899 44.2685C68.302 44.0618 68.8848 44.3094 69.0915 44.8215C69.1885 45.062 69.2781 45.3054 69.36 45.5515C69.5344 46.0755 69.2511 46.6417 68.7271 46.8161C68.2031 46.9906 67.6368 46.7072 67.4624 46.1832C67.3936 45.9766 67.3184 45.7721 67.2368 45.5701C67.0301 45.0579 67.2777 44.4752 67.7899 44.2685Z" fill="#F1F1F1"/>
<path fillRule="evenodd" clipRule="evenodd" d="M68.8876 47.6099C69.4382 47.567 69.9193 47.9786 69.9622 48.5292C69.9823 48.7865 69.9944 49.0443 69.9984 49.3024C70.0072 49.8546 69.5666 50.3093 69.0144 50.3181C68.4622 50.3268 68.0074 49.8862 67.9987 49.334C67.9953 49.1172 67.9851 48.9006 67.9683 48.6845C67.9254 48.1339 68.337 47.6528 68.8876 47.6099Z" fill="#F1F1F1"/>
<path fillRule="evenodd" clipRule="evenodd" d="M68.9289 51.1216C69.467 51.2463 69.8021 51.7835 69.6774 52.3215C69.6178 52.5786 69.5501 52.8338 69.4744 53.0867C69.3159 53.6157 68.7586 53.9161 68.2295 53.7577C67.7004 53.5992 67.4 53.0419 67.5585 52.5128C67.6221 52.3004 67.679 52.0861 67.729 51.8701C67.8537 51.332 68.3909 50.9969 68.9289 51.1216Z" fill="#F1F1F1"/>
<path fillRule="evenodd" clipRule="evenodd" d="M57 41C57.5523 41 58 41.4477 58 42V50.0731C58 50.4382 58.199 50.7743 58.519 50.9499L62.481 53.1233C62.9652 53.3889 63.1424 53.9967 62.8767 54.481C62.6111 54.9652 62.0033 55.1424 61.519 54.8767L57.5571 52.7034C56.5969 52.1766 56 51.1684 56 50.0731V42C56 41.4477 56.4477 41 57 41Z" fill="#F1F1F1"/>
<path d="M11 0C4.92487 0 0 4.92487 0 11V43C0 49.0751 4.92487 54 11 54H42.4311C43.0629 54 43.5124 53.3866 43.3704 52.7709C43.2689 52.3305 42.8848 52 42.4329 52H11C6.02944 52 2 47.9706 2 43V11C2 6.02944 6.02944 2 11 2H51C55.9706 2 60 6.02944 60 11V34.4329C60 34.8848 60.3305 35.2689 60.7709 35.3704C61.3866 35.5124 62 35.0629 62 34.4311V11C62 4.92487 57.0751 0 51 0H11Z" fill="#F1F1F1"/>
<path d="M48.3972 38.2127C48.8686 37.832 48.9181 37.1111 48.4665 36.7071L37.6524 27.0311C37.2039 26.6298 37.2089 25.9262 37.663 25.5313L54.6562 10.7546C55.0729 10.3922 55.117 9.76058 54.7546 9.34382C54.3922 8.92706 53.7606 8.883 53.3438 9.24539L33.6247 26.3924C32.1196 27.7012 29.8804 27.7012 28.3753 26.3924L8.65618 9.24539C8.23942 8.883 7.60779 8.92706 7.24539 9.34382C6.883 9.76058 6.92706 10.3922 7.34382 10.7546L24.337 25.5313C24.7911 25.9262 24.7961 26.6298 24.3476 27.0311L7.33563 42.2526C6.92285 42.6195 6.88567 43.2516 7.25259 43.6644C7.6195 44.0771 8.25158 44.1143 8.66436 43.7474L26.3685 27.9066C26.5657 27.7302 26.8633 27.7281 27.0629 27.9017C29.3206 29.8648 32.6794 29.8648 34.9371 27.9017C35.1367 27.7281 35.4343 27.7302 35.6315 27.9066L47.1338 38.1983C47.4896 38.5167 48.0258 38.5126 48.3972 38.2127Z" fill="#F1F1F1"/>
</svg>
