<svg width="15" height="17" viewBox="0 0 15 17" fill="none" xmlns="http://www.w3.org/2000/svg">
<path fill-rule="evenodd" clip-rule="evenodd" d="M7.50017 1.52239C5.92903 1.52239 4.65537 2.77198 4.65537 4.31343C4.65537 5.85488 5.92903 7.10448 7.50017 7.10448C9.0713 7.10448 10.345 5.85488 10.345 4.31343C10.345 2.77198 9.0713 1.52239 7.50017 1.52239ZM3.10367 4.31343C3.10367 1.93119 5.07205 0 7.50017 0C9.92829 0 11.8967 1.93119 11.8967 4.31343C11.8967 6.69568 9.92829 8.62687 7.50017 8.62687C5.07205 8.62687 3.10367 6.69568 3.10367 4.31343Z" fill="#961CFF"/>
<path fill-rule="evenodd" clip-rule="evenodd" d="M9.36759 11.0035C8.12491 10.8794 6.87516 10.8794 5.63248 11.0035L5.61601 11.0049C4.95873 11.0567 4.30511 11.1611 3.65995 11.3175L3.65314 11.3192C3.22755 11.4184 2.78293 11.5725 2.41416 11.7872C2.04588 12.0015 1.80364 12.2459 1.68608 12.5084C1.50638 12.943 1.50692 13.4533 1.68769 13.8874C1.81003 14.1716 2.05125 14.4128 2.41051 14.6165C2.77351 14.8222 3.21464 14.9646 3.65277 15.0616C3.66087 15.0634 3.66894 15.0653 3.67698 15.0674C4.31523 15.23 4.96295 15.3368 5.61457 15.3869C5.65311 15.3898 5.69137 15.3956 5.72903 15.4042C5.87305 15.4369 6.0213 15.4399 6.27714 15.4399C6.29325 15.4399 6.30935 15.4404 6.32543 15.4414C7.34023 15.5035 8.35758 15.4857 9.37031 15.3882L9.38498 15.3869C10.0399 15.3361 10.6909 15.2292 11.3327 15.067C11.3398 15.0652 11.3469 15.0635 11.354 15.0619C11.7889 14.9648 12.2304 14.8224 12.5936 14.6165C12.9546 14.4118 13.1935 14.171 13.3114 13.8897C13.494 13.453 13.494 12.9389 13.3114 12.5022C13.1935 12.2209 12.9545 11.9798 12.5923 11.7735C12.2279 11.566 11.785 11.4212 11.3469 11.3191L11.3408 11.3177C10.6951 11.1618 10.0411 11.0573 9.38335 11.0049L9.36759 11.0035ZM9.5168 9.48812C8.175 9.35472 6.82542 9.35471 5.48362 9.48808C4.74605 9.54659 4.01336 9.66382 3.29103 9.83877C2.76673 9.96124 2.1646 10.1623 1.62246 10.4778C1.08144 10.7927 0.548558 11.2526 0.258824 11.911L0.253417 11.9236C-0.0844723 12.7309 -0.0844723 13.661 0.253417 14.4683L0.255651 14.4736C0.548069 15.1577 1.08248 15.6219 1.63424 15.9347C2.17902 16.2435 2.78085 16.4284 3.29878 16.5439C4.00329 16.7227 4.71902 16.8419 5.43997 16.9004C5.74839 16.9625 6.03659 16.9624 6.25206 16.9623C6.25248 16.9623 6.2529 16.9623 6.25331 16.9623C7.34034 17.0276 8.43002 17.0081 9.51462 16.904C10.2535 16.8463 10.9872 16.7258 11.7093 16.5439C12.2227 16.4285 12.8249 16.2436 13.3699 15.9347C13.921 15.6223 14.4581 15.1569 14.7465 14.4687C15.0844 13.6613 15.0845 12.7309 14.7467 11.9236C14.4582 11.2354 13.9211 10.7699 13.3712 10.4568C12.8247 10.1456 12.2206 9.9582 11.7087 9.83869C10.9865 9.66443 10.2541 9.54725 9.5168 9.48812Z" fill="#961CFF"/>
</svg>