<svg width="30" height="30" viewBox="0 0 30 30" fill="none" xmlns="http://www.w3.org/2000/svg">
<path fillRule="evenodd" clipRule="evenodd" d="M15 30C23.2843 30 30 23.2843 30 15C30 6.71573 23.2843 0 15 0C6.71573 0 0 6.71573 0 15C0 23.2843 6.71573 30 15 30ZM16.3235 9.32353C16.3235 8.59256 15.7309 8 15 8C14.2691 8 13.6765 8.59256 13.6765 9.32353V13.2941C13.6765 13.7814 13.2814 14.1765 12.7941 14.1765H8.82353C8.09256 14.1765 7.5 14.7691 7.5 15.5C7.5 16.2309 8.09256 16.8235 8.82353 16.8235H12.7941C13.2814 16.8235 13.6765 17.2186 13.6765 17.7059V21.6765C13.6765 22.4074 14.2691 23 15 23C15.7309 23 16.3235 22.4074 16.3235 21.6765V17.7059C16.3235 17.2186 16.7186 16.8235 17.2059 16.8235H21.1765C21.9074 16.8235 22.5 16.2309 22.5 15.5C22.5 14.7691 21.9074 14.1765 21.1765 14.1765H17.2059C16.7186 14.1765 16.3235 13.7814 16.3235 13.2941V9.32353Z" fill="#8E00FF"/>
</svg>
