<svg width="22" height="26" viewBox="0 0 22 26" fill="none" xmlns="http://www.w3.org/2000/svg">
<path d="M17.6 8.66667C20.0301 8.66667 22 6.72657 22 4.33333C22 1.9401 20.0301 0 17.6 0C15.1699 0 13.2 1.9401 13.2 4.33333C13.2 5.18739 12.9421 6.08967 12.2282 6.55841L8.6108 8.93347C7.85729 9.4282 6.87784 9.30925 6.03968 8.97756C5.53295 8.77702 4.97956 8.66667 4.4 8.66667C1.96995 8.66667 0 10.6068 0 13C0 15.3932 1.96995 17.3333 4.4 17.3333C4.97951 17.3333 5.53286 17.223 6.03956 17.0225C6.8777 16.6908 7.85711 16.5719 8.61059 17.0666L12.2283 19.4419C12.9421 19.9106 13.2 20.8127 13.2 21.6667C13.2 24.0599 15.1699 26 17.6 26C20.0301 26 22 24.0599 22 21.6667C22 19.2734 20.0301 17.3333 17.6 17.3333C17.0205 17.3333 16.4671 17.4437 15.9603 17.6442C15.1222 17.9759 14.1428 18.0948 13.3893 17.6001L9.77178 15.225C9.05787 14.7563 8.8 13.854 8.8 13C8.8 12.1461 9.05786 11.244 9.77168 10.7753L13.3895 8.39998C14.1429 7.90527 15.1223 8.02419 15.9605 8.35584C16.4672 8.55633 17.0205 8.66667 17.6 8.66667Z" fill="#8E00FF"/>
</svg>
